<?xml version="1.0" encoding="utf-8"?>
<!-- Generator: Adobe Illustrator 23.0.3, SVG Export Plug-In . SVG Version: 6.00 Build 0)  -->
<svg version="1.1" id="Layer_1" xmlns="http://www.w3.org/2000/svg" xmlns:xlink="http://www.w3.org/1999/xlink" x="0px" y="0px"
	 viewBox="0 0 24 24" style="enable-background:new 0 0 24 24;" xml:space="preserve">
<style type="text/css">
	.st0{fill:url(#SVGID_1_);}
	.st1{fill:url(#SVGID_2_);}
	.st2{fill:url(#SVGID_3_);}
	.st3{fill:url(#SVGID_4_);}
	.st4{fill:url(#SVGID_5_);}
	.st5{fill:url(#SVGID_6_);}
	.st6{fill:url(#SVGID_7_);}
	.st7{fill:url(#SVGID_8_);}
	.st8{fill:url(#SVGID_9_);}
	.st9{fill:url(#SVGID_10_);}
	.st10{fill:url(#SVGID_11_);}
	.st11{fill:url(#SVGID_12_);}
	.st12{fill:url(#SVGID_13_);}
	.st13{fill:url(#SVGID_14_);}
	.st14{fill:url(#SVGID_15_);}
	.st15{fill:url(#SVGID_16_);}
	.st16{fill:url(#SVGID_17_);}
	.st17{fill:url(#SVGID_18_);}
	.st18{fill:url(#SVGID_19_);}
	.st19{fill:url(#SVGID_20_);}
	.st20{fill:url(#SVGID_21_);}
	.st21{fill:url(#SVGID_22_);}
	.st22{fill:url(#SVGID_23_);}
	.st23{fill:url(#SVGID_24_);}
	.st24{fill:url(#SVGID_25_);}
</style>
<linearGradient id="SVGID_1_" gradientUnits="userSpaceOnUse" x1="0.7365" y1="5.0955" x2="23.2647" y2="18.1022">
	<stop  offset="0" style="stop-color:#2183BF"/>
	<stop  offset="1" style="stop-color:#19086D"/>
</linearGradient>
<path class="st0" d="M21.1,3.2H2.9C1.9,3.2,1,4.1,1,5.2V18C1,19.1,1.9,20,2.9,20h18.1c1.1,0,1.9-0.9,1.9-1.9V5.2
	C23,4.1,22.1,3.2,21.1,3.2z M20.8,4.5L12,13.3L3.2,4.5H20.8z M2.3,17.8V5.4l6.2,6.2L2.3,17.8z M3.2,18.7l6.2-6.2l2.2,2.2
	c0.3,0.2,0.7,0.2,0.9,0l2.1-2.1l6.2,6.2H3.2z M21.7,17.8l-6.2-6.2l6.2-6.2V17.8z"/>
</svg>
