<?xml version="1.0" encoding="utf-8"?>
<!-- Generator: Adobe Illustrator 23.0.3, SVG Export Plug-In . SVG Version: 6.00 Build 0)  -->
<svg version="1.1" id="Layer_1" xmlns="http://www.w3.org/2000/svg" xmlns:xlink="http://www.w3.org/1999/xlink" x="0px" y="0px"
	 viewBox="0 0 24 24" style="enable-background:new 0 0 24 24;" xml:space="preserve">
<style type="text/css">
	.st0{fill:url(#SVGID_1_);}
	.st1{fill:url(#SVGID_2_);}
	.st2{fill:url(#SVGID_3_);}
	.st3{fill:url(#SVGID_4_);}
	.st4{fill:url(#SVGID_5_);}
	.st5{fill:url(#SVGID_6_);}
	.st6{fill:url(#SVGID_7_);}
	.st7{fill:url(#SVGID_8_);}
	.st8{fill:url(#SVGID_9_);}
	.st9{fill:url(#SVGID_10_);}
	.st10{fill:url(#SVGID_11_);}
	.st11{fill:url(#SVGID_12_);}
	.st12{fill:url(#SVGID_13_);}
	.st13{fill:url(#SVGID_14_);}
	.st14{fill:url(#SVGID_15_);}
	.st15{fill:url(#SVGID_16_);}
	.st16{fill:url(#SVGID_17_);}
	.st17{fill:url(#SVGID_18_);}
	.st18{fill:url(#SVGID_19_);}
	.st19{fill:url(#SVGID_20_);}
	.st20{fill:url(#SVGID_21_);}
	.st21{fill:url(#SVGID_22_);}
	.st22{fill:url(#SVGID_23_);}
	.st23{fill:url(#SVGID_24_);}
	.st24{fill:url(#SVGID_25_);}
	.st25{fill:url(#SVGID_26_);}
	.st26{fill:url(#SVGID_27_);}
	.st27{fill:url(#SVGID_28_);}
	.st28{fill:url(#SVGID_29_);}
	.st29{fill:url(#SVGID_30_);}
	.st30{fill:url(#SVGID_31_);}
	.st31{fill:url(#SVGID_32_);}
	.st32{fill:url(#SVGID_33_);}
	.st33{fill:url(#SVGID_34_);}
	.st34{fill:url(#Shape_2_);}
	.st35{fill:url(#SVGID_35_);}
	.st36{fill:url(#SVGID_36_);}
	.st37{fill:url(#SVGID_37_);}
	.st38{fill:url(#SVGID_38_);}
	.st39{fill:url(#SVGID_39_);}
	.st40{fill:url(#SVGID_40_);}
	.st41{fill:url(#SVGID_41_);}
	.st42{fill:url(#SVGID_42_);}
	.st43{fill:url(#SVGID_43_);}
	.st44{fill:url(#SVGID_44_);}
	.st45{fill:url(#SVGID_45_);}
	.st46{fill:url(#SVGID_46_);}
	.st47{fill:url(#SVGID_47_);}
	.st48{fill:url(#SVGID_48_);}
	.st49{fill:url(#SVGID_49_);}
</style>
<linearGradient id="SVGID_1_" gradientUnits="userSpaceOnUse" x1="1.7469" y1="12" x2="22.7469" y2="12">
	<stop  offset="0" style="stop-color:#2183BF"/>
	<stop  offset="1" style="stop-color:#19086D"/>
</linearGradient>
<path class="st0" d="M16.7,1.5H7.8C7,1.5,6.3,2.2,6.3,3V21c0,0.9,0.7,1.5,1.5,1.5h8.8c0.9,0,1.5-0.7,1.5-1.5V3
	C18.2,2.2,17.5,1.5,16.7,1.5z M7,4.3h10.5v13.3H7V4.3z M7.8,2.2h8.8c0.5,0,0.8,0.4,0.8,0.8v0.6H7V3C7,2.6,7.4,2.2,7.8,2.2z
	 M16.7,21.8H7.8C7.4,21.8,7,21.4,7,21v-2.7h10.5V21C17.5,21.4,17.1,21.8,16.7,21.8z M12.2,18.7c-0.8,0-1.4,0.6-1.4,1.4
	c0,0.8,0.6,1.4,1.4,1.4c0.8,0,1.4-0.6,1.4-1.4C13.6,19.3,13,18.7,12.2,18.7z M12.2,20.8c-0.4,0-0.7-0.3-0.7-0.7s0.3-0.7,0.7-0.7
	c0.4,0,0.7,0.3,0.7,0.7S12.6,20.8,12.2,20.8z M10.5,2.9c0-0.2,0.2-0.4,0.4-0.4h1.4c0.2,0,0.4,0.2,0.4,0.4c0,0.2-0.2,0.4-0.4,0.4
	h-1.4C10.7,3.2,10.5,3.1,10.5,2.9z M12.9,2.9c0-0.2,0.2-0.4,0.4-0.4h0.4c0.2,0,0.4,0.2,0.4,0.4c0,0.2-0.2,0.4-0.4,0.4h-0.4
	C13.1,3.2,12.9,3.1,12.9,2.9z M21.6,8.8c-0.1,0.1-0.2,0.1-0.2,0.1c-0.1,0-0.2,0-0.2-0.1c-0.1-0.1-0.1-0.4,0-0.5
	c1.3-1.3,1.3-3.4,0-4.7c-0.1-0.1-0.1-0.4,0-0.5c0.1-0.1,0.4-0.1,0.5,0C23.1,4.7,23.1,7.3,21.6,8.8z M21,6c0,0.8-0.3,1.6-0.9,2.1
	c-0.1,0.1-0.2,0.1-0.2,0.1s-0.2,0-0.2-0.1c-0.1-0.1-0.1-0.4,0-0.5c0.4-0.4,0.7-1,0.7-1.6S20,4.8,19.6,4.4c-0.1-0.1-0.1-0.4,0-0.5
	c0.1-0.1,0.4-0.1,0.5,0C20.7,4.5,21,5.2,21,6z M3.4,8.3c0.1,0.1,0.1,0.4,0,0.5C3.4,8.9,3.3,8.9,3.2,8.9c-0.1,0-0.2,0-0.2-0.1
	c-1.6-1.6-1.6-4.2,0-5.7C3.1,3,3.3,3,3.4,3.1c0.1,0.1,0.1,0.4,0,0.5C2.1,4.9,2.1,7,3.4,8.3z M4.9,4.3c-0.4,0.4-0.7,1-0.7,1.6
	s0.2,1.2,0.7,1.6C5,7.7,5,7.9,4.9,8C4.8,8.1,4.7,8.1,4.7,8.1S4.5,8.1,4.4,8C3.8,7.5,3.5,6.7,3.5,5.9s0.3-1.6,0.9-2.1
	c0.1-0.1,0.4-0.1,0.5,0C5,3.9,5,4.2,4.9,4.3z"/>
</svg>
